<svg id="_290_note_taking_flatline" data-name="#290_note_taking_flatline" xmlns="http://www.w3.org/2000/svg" viewBox="0 0 400 300"><path d="M133.64,245.42s6.37-38.09,8.59-46c7.13-25.53-5-101.43-5-102.19S99.74,133,98.26,147.55c-.71,7-.66,34.55-.05,44.53.39,6.24-10.39,48.42-10.39,48.42Z" fill="#fff"/><path d="M133.64,245.92h-.06L87.76,241a.47.47,0,0,1-.35-.21.5.5,0,0,1-.08-.41c.11-.42,10.76-42.18,10.38-48.27-.59-9.69-.66-37.53.05-44.61.78-7.7,11.24-21,19.88-30.89,7.7-8.78,18.65-19.91,19.58-19.91h0a.52.52,0,0,1,.48.52c0,.1.13,1,.31,2.2,7.19,49.65,8.86,85.2,4.69,100.11-2.18,7.82-8.52,45.59-8.58,46A.49.49,0,0,1,133.64,245.92Zm-45.2-5.85,44.78,4.8c.74-4.38,6.46-38.22,8.53-45.61,4.13-14.78,2.45-50.18-4.72-99.7-.09-.65-.16-1.11-.21-1.45-4.93,4.3-36.73,36.31-38.06,49.49-.72,7-.64,34.79-.05,44.45C99.08,198,89.77,234.84,88.44,240.07Z" fill="#231f20"/><polygon points="112.8 83.06 115.33 78.35 269.35 153.34 266.82 158.06 139.71 190.03 112.8 83.06" fill="#fff"/><path d="M139.71,190.53a.5.5,0,0,1-.49-.38l-26.9-107a.5.5,0,0,1,0-.36l2.52-4.72a.5.5,0,0,1,.66-.21l154,75a.48.48,0,0,1,.26.3.53.53,0,0,1,0,.39l-2.52,4.71a.5.5,0,0,1-.32.25l-127.12,32ZM113.33,83.13l26.74,106.29,126.42-31.79,2.17-4.07L115.54,79Z" fill="#231f20"/><rect x="126.8" y="60.69" width="131.08" height="110.3" transform="translate(-22.45 50.41) rotate(-14.12)" fill="#fff"/><path d="M142.23,185.81a.48.48,0,0,1-.26-.07.56.56,0,0,1-.23-.31l-26.9-107a.51.51,0,0,1,.36-.61l127.12-32a.51.51,0,0,1,.38.06.5.5,0,0,1,.23.3l26.9,107a.5.5,0,0,1-.36.61l-127.12,32Zm-26.3-107.1,26.66,106L268.74,153,242.08,47Z" fill="#231f20"/><circle cx="140.63" cy="81.3" r="3.6" fill="#231f20"/><path d="M140.63,85.4a4.1,4.1,0,1,1,4-5.1h0a4.1,4.1,0,0,1-3,5A3.87,3.87,0,0,1,140.63,85.4Zm0-7.2a2.84,2.84,0,0,0-.76.1,3.07,3.07,0,1,0,.76-.1Z" fill="#231f20"/><rect x="136.7" y="65.67" width="4.32" height="16.79" rx="2.16" transform="translate(-13.87 36.11) rotate(-14.12)" fill="#fff"/><path d="M140.38,82.78a2.67,2.67,0,0,1-2.58-2l-3.05-12.1a2.66,2.66,0,1,1,5.16-1.3l3,12.1A2.66,2.66,0,0,1,141,82.7h0A2.8,2.8,0,0,1,140.38,82.78Zm.52-.57h0Zm-3.57-15.85a1.83,1.83,0,0,0-.4,0,1.66,1.66,0,0,0-1.21,2l3.05,12.1a1.66,1.66,0,0,0,2,1.21h0a1.67,1.67,0,0,0,1-.76,1.64,1.64,0,0,0,.18-1.26l-3-12.09A1.66,1.66,0,0,0,137.33,66.36Z" fill="#231f20"/><circle cx="160.86" cy="76.21" r="3.6" fill="#231f20"/><path d="M160.86,80.31a4.08,4.08,0,1,1,1-.12A4.34,4.34,0,0,1,160.86,80.31Zm0-7.19a3.29,3.29,0,0,0-.76.09,3.11,3.11,0,1,0,.76-.09Z" fill="#231f20"/><rect x="156.93" y="60.59" width="4.32" height="16.79" rx="2.16" transform="translate(-12.02 40.89) rotate(-14.12)" fill="#fff"/><path d="M160.61,77.69a2.67,2.67,0,0,1-2.58-2L155,63.58a2.66,2.66,0,0,1,5.16-1.3l3,12.1a2.67,2.67,0,0,1-1.93,3.23h0A2.8,2.8,0,0,1,160.61,77.69Zm.52-.57h0Zm-3.57-15.85a1.83,1.83,0,0,0-.4,0,1.67,1.67,0,0,0-1.21,2L159,75.43a1.66,1.66,0,1,0,3.21-.81l-3-12.09A1.67,1.67,0,0,0,157.56,61.27Z" fill="#231f20"/><circle cx="181.09" cy="71.12" r="3.6" fill="#231f20"/><path d="M181.09,75.22a4.08,4.08,0,1,1,1-.12A4.34,4.34,0,0,1,181.09,75.22Zm0-7.19a3.29,3.29,0,0,0-.76.09,3.11,3.11,0,0,0-2.25,3.76,3.1,3.1,0,1,0,6-1.51h0a3.05,3.05,0,0,0-1.41-1.9A3.1,3.1,0,0,0,181.09,68Z" fill="#231f20"/><rect x="177.16" y="55.5" width="4.32" height="16.79" rx="2.16" transform="translate(-10.17 45.67) rotate(-14.12)" fill="#fff"/><path d="M180.83,72.6a2.66,2.66,0,0,1-1.36-.38,2.6,2.6,0,0,1-1.21-1.63l-3-12.1a2.66,2.66,0,1,1,5.16-1.29l3,12.09a2.64,2.64,0,0,1-1.93,3.23A2.82,2.82,0,0,1,180.83,72.6Zm-3-16.42a1.4,1.4,0,0,0-.41.06,1.66,1.66,0,0,0-1.21,2l3,12.1a1.57,1.57,0,0,0,.75,1,1.64,1.64,0,0,0,1.26.19h0a1.67,1.67,0,0,0,1-.76,1.61,1.61,0,0,0,.18-1.25l-3-12.1a1.67,1.67,0,0,0-.76-1A1.6,1.6,0,0,0,177.8,56.18Z" fill="#231f20"/><circle cx="201.32" cy="66.04" r="3.6" fill="#231f20"/><path d="M201.32,70.13a4.1,4.1,0,1,1,4-5.09h0a4.1,4.1,0,0,1-3,5A4.34,4.34,0,0,1,201.32,70.13Zm0-7.19a3.29,3.29,0,0,0-.76.09,3.1,3.1,0,0,0-2.24,3.76A3.1,3.1,0,0,0,202.07,69a3.09,3.09,0,0,0,2.25-3.76h0A3.1,3.1,0,0,0,201.32,62.94Z" fill="#231f20"/><rect x="197.39" y="50.41" width="4.32" height="16.79" rx="2.16" transform="translate(-8.32 50.45) rotate(-14.12)" fill="#fff"/><path d="M201.06,67.51a2.64,2.64,0,0,1-1.36-.38,2.6,2.6,0,0,1-1.21-1.63l-3.05-12.1a2.68,2.68,0,0,1,.3-2,2.63,2.63,0,0,1,1.63-1.21,2.69,2.69,0,0,1,2,.29,2.65,2.65,0,0,1,1.21,1.64l3,12.1a2.64,2.64,0,0,1-1.93,3.22h0A2.36,2.36,0,0,1,201.06,67.51ZM198,51.1a1.37,1.37,0,0,0-.4,0,1.65,1.65,0,0,0-1,.75,1.69,1.69,0,0,0-.19,1.26l3.05,12.1a1.62,1.62,0,0,0,.75,1,1.68,1.68,0,0,0,1.26.18h0a1.65,1.65,0,0,0,1.2-2l-3-12.1A1.66,1.66,0,0,0,198,51.1Z" fill="#231f20"/><circle cx="221.55" cy="60.95" r="3.6" fill="#231f20"/><path d="M221.55,65a4.1,4.1,0,1,1,4-5.09h0a4.1,4.1,0,0,1-3,5A4.34,4.34,0,0,1,221.55,65Zm0-7.19a2.84,2.84,0,0,0-.76.1,3.09,3.09,0,1,0,3.76,2.24h0A3.1,3.1,0,0,0,221.55,57.85Z" fill="#231f20"/><rect x="217.61" y="45.32" width="4.32" height="16.79" rx="2.16" transform="translate(-6.46 55.23) rotate(-14.12)" fill="#fff"/><path d="M221.29,62.42a2.65,2.65,0,0,1-2.57-2l-3.05-12.09a2.66,2.66,0,0,1,5.16-1.3l3,12.1a2.65,2.65,0,0,1-1.93,3.22h0A2.36,2.36,0,0,1,221.29,62.42Zm.53-.56h0ZM218.25,46a1.83,1.83,0,0,0-.4.05,1.66,1.66,0,0,0-1.21,2l3.05,12.1a1.66,1.66,0,0,0,3.21-.81l-3-12.1A1.66,1.66,0,0,0,218.25,46Z" fill="#231f20"/><line x1="142.23" y1="185.31" x2="139.71" y2="190.03" fill="#fff"/><path d="M139.71,190.53a.53.53,0,0,1-.24-.06.5.5,0,0,1-.2-.68l2.52-4.71a.49.49,0,0,1,.67-.21.5.5,0,0,1,.21.68l-2.52,4.72A.52.52,0,0,1,139.71,190.53Z" fill="#231f20"/><circle cx="139.03" cy="101.44" r="1.86" fill="#d1d3d4"/><path d="M231.41,79.18a3.62,3.62,0,0,1-2.27-.13,3,3,0,0,0-1.92-.12,2.94,2.94,0,0,0-1.63,1,3.63,3.63,0,0,1-1.94,1.19,3.59,3.59,0,0,1-2.26-.13,3,3,0,0,0-1.92-.12,2.94,2.94,0,0,0-1.63,1,3.64,3.64,0,0,1-1.93,1.19,3.69,3.69,0,0,1-2.27-.13,2.88,2.88,0,0,0-1.91-.12,3,3,0,0,0-1.64,1A3.6,3.6,0,0,1,208.16,85a3.69,3.69,0,0,1-2.27-.13,3.15,3.15,0,0,0-3.54.89A3.57,3.57,0,0,1,200.41,87a3.53,3.53,0,0,1-2.26-.13,3.15,3.15,0,0,0-3.54.89,3.79,3.79,0,0,1-4.2,1.06,3,3,0,0,0-1.92-.12,2.94,2.94,0,0,0-1.63,1,3.78,3.78,0,0,1-4.2,1.06,3.15,3.15,0,0,0-3.54.89,3.79,3.79,0,0,1-4.2,1.06,2.92,2.92,0,0,0-1.92-.12,2.89,2.89,0,0,0-1.63,1,3.76,3.76,0,0,1-4.2,1,3.18,3.18,0,0,0-3.54.9,3.57,3.57,0,0,1-1.94,1.18,3.53,3.53,0,0,1-2.26-.13,3.15,3.15,0,0,0-3.54.89A3.61,3.61,0,0,1,154,98.66a3.51,3.51,0,0,1-2.26-.13,3,3,0,0,0-1.92-.12.31.31,0,1,1-.15-.61,3.51,3.51,0,0,1,2.26.13,3.16,3.16,0,0,0,3.55-.89,3.64,3.64,0,0,1,1.93-1.19,3.69,3.69,0,0,1,2.27.13,3.15,3.15,0,0,0,3.54-.89,3.64,3.64,0,0,1,1.93-1.19,3.69,3.69,0,0,1,2.27.13,3.15,3.15,0,0,0,3.54-.89A3.61,3.61,0,0,1,172.85,92a3.52,3.52,0,0,1,2.26.13,3,3,0,0,0,1.92.12,3,3,0,0,0,1.63-1,3.78,3.78,0,0,1,4.2-1.06,3.15,3.15,0,0,0,3.54-.89,3.67,3.67,0,0,1,1.94-1.19,3.58,3.58,0,0,1,2.26.13,3,3,0,0,0,1.92.12,2.94,2.94,0,0,0,1.63-1,3.64,3.64,0,0,1,1.93-1.19,3.69,3.69,0,0,1,2.27.13,3.15,3.15,0,0,0,3.54-.89,3.63,3.63,0,0,1,1.94-1.19,3.58,3.58,0,0,1,2.26.14,3.19,3.19,0,0,0,3.55-.9,3.8,3.8,0,0,1,4.2-1.05,3,3,0,0,0,1.91.12,3,3,0,0,0,1.63-1,3.55,3.55,0,0,1,1.94-1.19,3.51,3.51,0,0,1,2.26.13,3,3,0,0,0,1.92.12,2.94,2.94,0,0,0,1.63-1,3.8,3.8,0,0,1,4.21-1.06,3,3,0,0,0,1.91.12,3,3,0,0,0,1.64-1,3.52,3.52,0,0,1,1.93-1.19.33.33,0,0,1,.39.23A.31.31,0,0,1,235,77a3,3,0,0,0-1.64,1A3.6,3.6,0,0,1,231.41,79.18Z" fill="#d1d3d4"/><path d="M233.42,87.17a3.55,3.55,0,0,1-2.27-.13,2.93,2.93,0,0,0-1.92-.11,2.89,2.89,0,0,0-1.63,1,3.57,3.57,0,0,1-1.94,1.18A3.53,3.53,0,0,1,223.4,89a3.14,3.14,0,0,0-3.55.9,3.8,3.8,0,0,1-4.2,1,3,3,0,0,0-1.91-.12,3,3,0,0,0-1.64,1,3.77,3.77,0,0,1-4.19,1.06,3,3,0,0,0-1.92-.12,2.94,2.94,0,0,0-1.63,1A3.64,3.64,0,0,1,202.43,95a3.69,3.69,0,0,1-2.27-.13,3.15,3.15,0,0,0-3.54.89,3.79,3.79,0,0,1-4.2,1.06,2.92,2.92,0,0,0-1.92-.12,2.89,2.89,0,0,0-1.63,1,3.8,3.8,0,0,1-4.2,1,3.18,3.18,0,0,0-3.54.9,3.61,3.61,0,0,1-1.94,1.18,3.52,3.52,0,0,1-2.26-.13,3,3,0,0,0-1.92-.12,2.94,2.94,0,0,0-1.63,1,3.78,3.78,0,0,1-4.2,1.06,3.15,3.15,0,0,0-3.54.89,3.79,3.79,0,0,1-4.2,1.06,2.89,2.89,0,0,0-1.91-.12,2.94,2.94,0,0,0-1.63,1,3.67,3.67,0,0,1-1.94,1.19,3.58,3.58,0,0,1-2.26-.14,2.93,2.93,0,0,0-1.92-.11.32.32,0,0,1-.38-.23.33.33,0,0,1,.23-.39,3.65,3.65,0,0,1,2.26.13,2.92,2.92,0,0,0,1.92.12,2.89,2.89,0,0,0,1.63-1,3.8,3.8,0,0,1,4.2-1,3.15,3.15,0,0,0,3.54-.89,3.78,3.78,0,0,1,4.2-1.06,3,3,0,0,0,1.91.12,3,3,0,0,0,1.64-1,3.6,3.6,0,0,1,1.93-1.19,3.65,3.65,0,0,1,2.26.13,3,3,0,0,0,1.92.12,2.94,2.94,0,0,0,1.63-1A3.64,3.64,0,0,1,182.6,98a3.69,3.69,0,0,1,2.27.13,3.15,3.15,0,0,0,3.54-.89,3.61,3.61,0,0,1,1.94-1.18,3.51,3.51,0,0,1,2.26.13,2.93,2.93,0,0,0,1.92.11,2.89,2.89,0,0,0,1.63-1,3.8,3.8,0,0,1,4.2-1.05,3.15,3.15,0,0,0,3.54-.89,3.63,3.63,0,0,1,1.94-1.19,3.59,3.59,0,0,1,2.26.13,3.16,3.16,0,0,0,3.55-.89,3.64,3.64,0,0,1,1.93-1.19,3.69,3.69,0,0,1,2.27.13,3,3,0,0,0,1.91.12,3,3,0,0,0,1.64-1,3.6,3.6,0,0,1,1.93-1.19,3.69,3.69,0,0,1,2.27.13,3.15,3.15,0,0,0,3.54-.89,3.63,3.63,0,0,1,1.94-1.19,3.69,3.69,0,0,1,2.27.13,2.88,2.88,0,0,0,1.91.12,3,3,0,0,0,1.64-1,3.64,3.64,0,0,1,1.93-1.19.32.32,0,0,1,.39.23A.33.33,0,0,1,237,85a3,3,0,0,0-1.64,1A3.53,3.53,0,0,1,233.42,87.17Z" fill="#d1d3d4"/><path d="M201.14,101.9a3.26,3.26,0,0,0-1.16.94,2.47,2.47,0,0,1-3.07.78,2.93,2.93,0,0,0-2.07-.19,3,3,0,0,0-1.72,1.14,2.37,2.37,0,0,1-1.4.94,2.34,2.34,0,0,1-1.68-.17,3,3,0,0,0-2.06-.19,3,3,0,0,0-1.73,1.15,2.37,2.37,0,0,1-1.4.94,2.34,2.34,0,0,1-1.68-.17,3,3,0,0,0-2.06-.19,3,3,0,0,0-1.73,1.15,2.37,2.37,0,0,1-1.4.94,2.4,2.4,0,0,1-1.68-.17,3.13,3.13,0,0,0-3.79,1,2.33,2.33,0,0,1-1.4.94,2.36,2.36,0,0,1-1.68-.16,2.94,2.94,0,0,0-2.06-.2,3.07,3.07,0,0,0-1.72,1.15,2.41,2.41,0,0,1-1.4.94,2.34,2.34,0,0,1-1.68-.17,3,3,0,0,0-2.06-.19,3,3,0,0,0-1.73,1.15,2.37,2.37,0,0,1-1.4.94,2.41,2.41,0,0,1-1.68-.17,3,3,0,0,0-2.06-.19.31.31,0,0,0-.23.38.32.32,0,0,0,.39.23,2.37,2.37,0,0,1,1.67.17,3.12,3.12,0,0,0,3.79-.95,2.34,2.34,0,0,1,1.4-1,2.4,2.4,0,0,1,1.68.17,3.13,3.13,0,0,0,3.79-1,2.37,2.37,0,0,1,1.4-.94,2.41,2.41,0,0,1,1.68.16,2.94,2.94,0,0,0,2.06.2,3,3,0,0,0,1.72-1.15,2.41,2.41,0,0,1,1.4-.94,2.34,2.34,0,0,1,1.68.17,3,3,0,0,0,2.06.19,3,3,0,0,0,1.73-1.15,2.37,2.37,0,0,1,1.4-.94,2.4,2.4,0,0,1,1.68.17,3.13,3.13,0,0,0,3.79-1,2.47,2.47,0,0,1,3.08-.78,3.13,3.13,0,0,0,3.79-1A2.37,2.37,0,0,1,195,104a2.41,2.41,0,0,1,1.68.16,2.94,2.94,0,0,0,2.06.2,3,3,0,0,0,1.72-1.15,2.82,2.82,0,0,1,.83-.73Z" fill="#d1d3d4"/><circle cx="146.02" cy="129.22" r="1.86" fill="#d1d3d4"/><path d="M217.88,110.23a3.7,3.7,0,0,0-1.25,1,3,3,0,0,1-1.64,1,3,3,0,0,1-1.91-.12,3.78,3.78,0,0,0-4.2,1.06,3,3,0,0,1-1.63,1,3,3,0,0,1-1.91-.12,3.8,3.8,0,0,0-4.2,1,3.16,3.16,0,0,1-3.55.89,3.79,3.79,0,0,0-4.2,1.06,3.15,3.15,0,0,1-3.54.89,3.69,3.69,0,0,0-2.27-.13,3.6,3.6,0,0,0-1.93,1.19,3,3,0,0,1-1.63,1,3,3,0,0,1-1.92-.12,3.53,3.53,0,0,0-2.26-.13,3.57,3.57,0,0,0-1.94,1.19,3.15,3.15,0,0,1-3.54.89,3.8,3.8,0,0,0-4.2,1.05,2.89,2.89,0,0,1-1.63,1,2.93,2.93,0,0,1-1.92-.11,3.75,3.75,0,0,0-4.19,1,3,3,0,0,1-1.63,1,2.92,2.92,0,0,1-1.92-.12,3.66,3.66,0,0,0-2.26-.13.32.32,0,0,0-.23.38.31.31,0,0,0,.38.23,3,3,0,0,1,1.91.12,3.8,3.8,0,0,0,4.2-1,3.16,3.16,0,0,1,3.55-.89,3.79,3.79,0,0,0,4.2-1.06,3.15,3.15,0,0,1,3.54-.89,3.79,3.79,0,0,0,4.2-1.06,3.15,3.15,0,0,1,3.54-.89,3.55,3.55,0,0,0,2.27.13,3.48,3.48,0,0,0,1.93-1.19,3.16,3.16,0,0,1,3.55-.89,3.53,3.53,0,0,0,2.26.13,3.57,3.57,0,0,0,1.94-1.18,3.18,3.18,0,0,1,3.54-.9,3.55,3.55,0,0,0,2.27.13,3.61,3.61,0,0,0,1.94-1.18,3.15,3.15,0,0,1,3.54-.89,3.79,3.79,0,0,0,4.2-1.06,3.15,3.15,0,0,1,3.54-.89,3.78,3.78,0,0,0,4.2-1.06,3.2,3.2,0,0,1,1-.76Z" fill="#d1d3d4"/><path d="M203.31,122.91l-.16.17a2.94,2.94,0,0,1-1.63,1,3,3,0,0,1-1.92-.12,3.79,3.79,0,0,0-4.2,1.06,3,3,0,0,1-1.63,1,3,3,0,0,1-1.91-.12,3.8,3.8,0,0,0-4.2,1,3.19,3.19,0,0,1-3.55.9,3.58,3.58,0,0,0-2.26-.14,3.63,3.63,0,0,0-1.94,1.19,2.94,2.94,0,0,1-1.63,1,2.88,2.88,0,0,1-1.91-.12,3.69,3.69,0,0,0-2.27-.13,3.64,3.64,0,0,0-1.93,1.19,3.15,3.15,0,0,1-3.54.89,3.78,3.78,0,0,0-4.2,1.06,3.16,3.16,0,0,1-3.55.89,3.52,3.52,0,0,0-2.26-.13.31.31,0,1,0,.15.61,2.92,2.92,0,0,1,1.92.12,3.65,3.65,0,0,0,2.26.13,3.6,3.6,0,0,0,1.93-1.19,3.16,3.16,0,0,1,3.55-.89,3.79,3.79,0,0,0,4.2-1.06,3.15,3.15,0,0,1,3.54-.89,3.8,3.8,0,0,0,4.2-1,2.89,2.89,0,0,1,1.63-1,2.93,2.93,0,0,1,1.92.11,3.75,3.75,0,0,0,4.19-1.05,3,3,0,0,1,1.63-1,2.92,2.92,0,0,1,1.92.12,3.69,3.69,0,0,0,2.27.13,3.64,3.64,0,0,0,1.93-1.19,2.94,2.94,0,0,1,1.63-1,3,3,0,0,1,1.92.12,3.58,3.58,0,0,0,2.26.13,3.49,3.49,0,0,0,1.82-1.07Z" fill="#d1d3d4"/><circle cx="151.23" cy="149.95" r="1.86" fill="#d1d3d4"/><path d="M162,146.93a2.83,2.83,0,0,1,1.91.12,3.79,3.79,0,0,0,4.2-1.06,3.15,3.15,0,0,1,3.54-.89,3.69,3.69,0,0,0,2.27.13,3.64,3.64,0,0,0,1.93-1.19,3.15,3.15,0,0,1,3.54-.89,3.55,3.55,0,0,0,2.27.13,3.48,3.48,0,0,0,1.93-1.19,3.16,3.16,0,0,1,3.55-.89,3.53,3.53,0,0,0,2.26.13,3.57,3.57,0,0,0,1.94-1.18,3.18,3.18,0,0,1,3.54-.9,3.76,3.76,0,0,0,4.2-1.05,3.16,3.16,0,0,1,3.55-.89,3.79,3.79,0,0,0,4.2-1.06,2.94,2.94,0,0,1,1.63-1c.11,0,.2,0,.3-.05,0-.21,0-.42,0-.63a3.83,3.83,0,0,0-.43.07,3.57,3.57,0,0,0-1.94,1.18,3.13,3.13,0,0,1-3.54.9,3.8,3.8,0,0,0-4.2,1,3,3,0,0,1-1.63,1,2.92,2.92,0,0,1-1.92-.12,3.69,3.69,0,0,0-2.27-.13,3.64,3.64,0,0,0-1.93,1.19,2.94,2.94,0,0,1-1.63,1,2.88,2.88,0,0,1-1.91-.12,3.69,3.69,0,0,0-2.27-.13,3.6,3.6,0,0,0-1.93,1.19,3,3,0,0,1-1.63,1,3,3,0,0,1-1.92-.12,3.53,3.53,0,0,0-2.26-.13,3.57,3.57,0,0,0-1.94,1.19,3.15,3.15,0,0,1-3.54.89,3.8,3.8,0,0,0-4.2,1.05,3.18,3.18,0,0,1-3.54.9,3.61,3.61,0,0,0-2.27-.14.32.32,0,0,0,.16.62Z" fill="#d1d3d4"/><path d="M105.83,140.52c7.62-9.91,17-18.34,26.89-25.93,2.45-1.88,5.1-3.77,8.17-4.09s6.61,1.61,7,4.7c.28,2.44-1.38,4.6-2.94,6.47l-20.44,24.41a30.14,30.14,0,0,1-.43,33" fill="#fff"/><path d="M124,179.62a.52.52,0,0,1-.29-.09.51.51,0,0,1-.12-.7c6.53-9.28,6.71-22.94.42-32.47a.51.51,0,0,1,0-.6l20.44-24.41c1.56-1.88,3.07-3.89,2.82-6.09-.32-2.86-3.65-4.54-6.41-4.26s-5.4,2.06-7.92,4c-11.51,8.82-20,17-26.8,25.83a.5.5,0,1,1-.79-.61c6.83-8.87,15.4-17.14,27-26,2.65-2,5.28-3.87,8.43-4.19s7.11,1.69,7.51,5.14c.29,2.59-1.35,4.8-3.06,6.84l-20.2,24.13a30.46,30.46,0,0,1-.64,33.29A.49.49,0,0,1,124,179.62Z" fill="#231f20"/><path d="M308.13,192.92,277.56,216.3s-16.69-29.26-28.4-37.89a140.83,140.83,0,0,0-25.77-14.48c-1.41-3.63-18-20.54-11.65-20.2s35.3,14.71,38.85,14.11,9.56-7.41,5.43-14.21-7.27-13.79-14.59-11.37C230.31,135.94,220,142.57,215,142.7s-10.81-4.11-5.57-11.17c6-8.07,21.89-18.16,36.25-22.33s36.18,19.18,45.51,39C300.14,159.64,305.6,183.13,308.13,192.92Z" fill="#fff"/><path d="M277.56,216.8h-.1a.51.51,0,0,1-.33-.24c-.17-.29-16.77-29.27-28.27-37.74a141.65,141.65,0,0,0-25.66-14.42.5.5,0,0,1-.27-.28c-.44-1.13-2.64-3.87-5-6.77-5.47-6.82-9-11.43-8-13.34a1.71,1.71,0,0,1,1.79-.77c3.33.18,12.46,4,21.29,7.72,7.8,3.27,15.87,6.65,17.45,6.39s4.26-2.3,5.57-5.17a8.53,8.53,0,0,0-.48-8.28c-.42-.7-.84-1.39-1.24-2.08-3.53-6-6.58-11.12-12.77-9.08a135.26,135.26,0,0,0-14.18,5.94c-5.34,2.49-9.57,4.46-12.36,4.53-3.19.08-6.28-1.51-7.51-3.88-.85-1.62-1.27-4.34,1.51-8.09,6.21-8.37,22.59-18.46,36.52-22.51,6.71-2,15.63,1.83,25.12,10.62A97.87,97.87,0,0,1,291.63,148c8.28,10.59,13.52,31.19,16.34,42.26.23.93.45,1.78.65,2.55a.5.5,0,0,1-.18.52L277.87,216.7A.5.5,0,0,1,277.56,216.8Zm-53.79-53.25A142.07,142.07,0,0,1,249.46,178c11,8.08,25.93,33.53,28.25,37.55l29.86-22.84c-.18-.69-.37-1.43-.57-2.23-2.8-11-8-31.52-16.19-41.94l-.06-.1c-8.73-18.59-30.56-42.93-44.91-38.77-13.75,4-29.89,13.93-36,22.15-2,2.64-2.46,5.07-1.44,7s3.76,3.41,6.6,3.34c2.59-.07,6.94-2.09,12-4.44a133.81,133.81,0,0,1,14.29-6c6.95-2.3,10.35,3.44,13.94,9.52.4.68.81,1.38,1.23,2.07a9.6,9.6,0,0,1,.54,9.22c-1.32,2.89-4,5.36-6.31,5.74-1.74.3-8-2.24-18-6.46-8.34-3.5-17.79-7.48-20.95-7.64-.33,0-.74,0-.85.23-.76,1.47,4.45,8,7.89,12.26A50.84,50.84,0,0,1,223.77,163.55Z" fill="#231f20"/><polygon points="197.37 138.4 196.71 148.9 186.25 144.79 180.69 142.61 186.49 141.15 197.37 138.4" fill="#fff"/><path d="M196.7,149.4l-.18,0-16-6.3a.49.49,0,0,1-.31-.49.5.5,0,0,1,.37-.46l16.68-4.21a.5.5,0,0,1,.62.52l-.67,10.51a.51.51,0,0,1-.23.39A.5.5,0,0,1,196.7,149.4Zm-14.37-6.69,13.92,5.48.58-9.14Z" fill="#231f20"/><path d="M278.24,154.1l-81.54-5.2a15.72,15.72,0,0,1-.69-5.31,16,16,0,0,1,1.36-5.19l81.54,5.2Z" fill="#68e1fd"/><path d="M278.24,154.6h0l-81.54-5.2a.49.49,0,0,1-.44-.34,14.45,14.45,0,0,1,.69-10.88.52.52,0,0,1,.49-.28l81.53,5.2a.5.5,0,0,1,.47.53l-.67,10.5a.49.49,0,0,1-.17.34A.51.51,0,0,1,278.24,154.6Zm-81.16-6.17,80.69,5.14.61-9.51-80.69-5.14a13.39,13.39,0,0,0-.61,9.51Z" fill="#231f20"/><path d="M281.48,144.09h13.07a0,0,0,0,1,0,0v10.52a0,0,0,0,1,0,0H281.48a2.92,2.92,0,0,1-2.92-2.92V147A2.92,2.92,0,0,1,281.48,144.09Z" transform="translate(563.02 316.63) rotate(-176.35)" fill="#fff"/><path d="M291.47,155.44h-.22l-13-.83a.5.5,0,0,1-.47-.53l.67-10.51a.48.48,0,0,1,.53-.46l13,.83a3.4,3.4,0,0,1,3.19,3.63l-.29,4.68a3.45,3.45,0,0,1-3.41,3.2Zm-12.7-1.81,12.54.8a2.39,2.39,0,0,0,1.75-.6,2.36,2.36,0,0,0,.82-1.66l.3-4.68a2.41,2.41,0,0,0-2.26-2.56l-12.54-.8Z" fill="#231f20"/><rect x="281.35" y="143.81" width="1.5" height="10.52" transform="translate(10.05 -17.64) rotate(3.65)" fill="#231f20"/><rect x="284.33" y="144" width="1.5" height="10.52" transform="translate(10.07 -17.83) rotate(3.65)" fill="#231f20"/><polygon points="186.49 141.15 186.25 144.79 180.69 142.61 186.49 141.15" fill="#68e1fd"/><path d="M186.25,145.29a.57.57,0,0,1-.18,0l-5.56-2.19a.49.49,0,0,1-.31-.49.5.5,0,0,1,.37-.46l5.79-1.46a.49.49,0,0,1,.44.1.49.49,0,0,1,.18.42l-.23,3.65a.48.48,0,0,1-.5.46Zm-3.92-2.58,3.47,1.37.14-2.28Z" fill="#231f20"/><path d="M224.12,164.1s-15.57-6.49-19.14-9c-5.8-4.07.87-12.54,5-11.52,2.91.71,18.61,6.14,21.83,7.38" fill="#fff"/><path d="M224.12,164.6a.63.63,0,0,1-.19,0c-.64-.27-15.67-6.55-19.24-9.06-2.47-1.74-3.15-4.55-1.79-7.51s4.52-5.57,7.18-4.91c2.88.71,18.63,6.15,21.89,7.41a.49.49,0,0,1,.29.64.51.51,0,0,1-.65.29c-3.25-1.26-18.92-6.66-21.77-7.37-1.9-.47-4.78,1.6-6,4.35a4.8,4.8,0,0,0,1.46,6.29c3.48,2.44,18.89,8.88,19,8.94a.5.5,0,0,1,.27.66A.49.49,0,0,1,224.12,164.6Z" fill="#231f20"/><polygon points="334.08 254.49 313.33 188.54 264.53 202.02 276.53 254.49 334.08 254.49" fill="#231f20"/><path d="M334.08,255H276.53a.49.49,0,0,1-.49-.39l-12-52.47a.5.5,0,0,1,.36-.59l48.79-13.48a.5.5,0,0,1,.61.33l20.76,66a.52.52,0,0,1-.08.45A.48.48,0,0,1,334.08,255Zm-57.15-1H333.4L313,189.15l-47.87,13.23Z" fill="#231f20"/><polygon points="138.35 254.49 144.8 203.67 95.55 198.18 81.38 254.49 138.35 254.49" fill="#231f20"/><path d="M138.35,255h-57a.51.51,0,0,1-.4-.19.51.51,0,0,1-.09-.43l14.17-56.32a.5.5,0,0,1,.54-.37l49.26,5.49a.5.5,0,0,1,.44.56l-6.45,50.82A.51.51,0,0,1,138.35,255ZM82,254h55.89l6.33-49.88-48.31-5.39Z" fill="#231f20"/><rect x="265.41" y="210.66" width="58.36" height="13.43" rx="2.84" transform="translate(-41.76 72.8) rotate(-13.16)" fill="#fff"/><path d="M269.82,230.49a3.33,3.33,0,0,1-3.25-2.58l-1.77-7.54a3.36,3.36,0,0,1,.42-2.53,3.3,3.3,0,0,1,2.08-1.49l51.29-12a3.34,3.34,0,0,1,4,2.5l1.77,7.54a3.35,3.35,0,0,1-2.49,4l-.12-.49.12.49-51.3,12A3.29,3.29,0,0,1,269.82,230.49Zm49.53-25.22a2.39,2.39,0,0,0-.53.06l-51.3,12a2.38,2.38,0,0,0-1.45,1.05,2.29,2.29,0,0,0-.29,1.77l1.76,7.54a2.35,2.35,0,0,0,2.81,1.75l51.3-12a2.34,2.34,0,0,0,1.74-2.81l-1.76-7.55A2.35,2.35,0,0,0,319.35,205.27Z" fill="#231f20"/><circle cx="296.84" cy="216.13" r="13.23" fill="#fff"/><path d="M296.84,229.85a13.73,13.73,0,1,1,13.72-13.72A13.74,13.74,0,0,1,296.84,229.85Zm0-26.45a12.73,12.73,0,1,0,12.72,12.73A12.74,12.74,0,0,0,296.84,203.4Z" fill="#231f20"/><path d="M296.84,217.88a.48.48,0,0,1-.24-.06.52.52,0,0,1-.26-.38c-.13-1-.75-6-.75-6.48a.51.51,0,0,1,.5-.5.5.5,0,0,1,.5.5h0c0,.29.37,3.38.66,5.65l8.47-4.23a.5.5,0,0,1,.67.22.49.49,0,0,1-.22.67l-9.11,4.56A.59.59,0,0,1,296.84,217.88Zm-.25-6.92h0Z" fill="#d1d3d4"/></svg>